<?xml version="1.0" encoding="UTF-8"?>
<!DOCTYPE svg PUBLIC "-//W3C//DTD SVG 1.1//EN" "http://www.w3.org/Graphics/SVG/1.1/DTD/svg11.dtd">
<!-- Creator: CorelDRAW X7 -->
<svg xmlns="http://www.w3.org/2000/svg" xml:space="preserve" width="0.383031in" height="0.383028in" version="1.1" style="shape-rendering:geometricPrecision; text-rendering:geometricPrecision; image-rendering:optimizeQuality; fill-rule:evenodd; clip-rule:evenodd"
viewBox="0 0 369 369"
 xmlns:xlink="http://www.w3.org/1999/xlink">
 <defs>
  <style type="text/css">
   <![CDATA[
    .str0 {stroke:#D2D3D5;stroke-width:4.018}
    .fil0 {fill:#A7C4D2}
    .fil2 {fill:#ED3237;fill-rule:nonzero}
    .fil1 {fill:#3E4095;fill-rule:nonzero}
   ]]>
  </style>
 </defs>
 <g id="Layer_x0020_1">
  <metadata id="CorelCorpID_0Corel-Layer"/>
  <g id="_1489056857056">
   <path class="fil0" d="M185 0c102,0 184,83 184,185 0,102 -82,184 -184,184 -102,0 -185,-82 -185,-184 0,-102 83,-185 185,-185z"/>
   <g>
    <path class="fil1 str0" d="M147 295l25 -152 63 0c12,0 21,1 28,3 8,2 14,6 19,12 5,7 7,14 7,23 0,9 -3,17 -9,23 -6,7 -14,11 -23,14 16,5 25,16 25,33 0,11 -4,22 -12,31 -8,9 -22,13 -40,13l-83 0zm60 -94l17 0c14,0 21,-5 21,-14 0,-8 -6,-12 -17,-12l-17 0 -4 26zm-10 61l23 0c7,0 12,-2 14,-5 3,-3 4,-6 4,-10 0,-4 -1,-7 -4,-10 -3,-3 -8,-4 -13,-4l-20 0 -4 29z"/>
    <polygon class="fil2 str0" points="214,202 207,232 90,232 118,68 170,68 149,202 "/>
   </g>
  </g>
 </g>
</svg>
